<svg xmlns="http://www.w3.org/2000/svg" width="10.147" height="12.402" viewBox="0 0 10.147 12.402">
  <g id="delete" transform="translate(-3 -1)">
    <path id="Path_41819" data-name="Path 41819" d="M12.019,4.382a.564.564,0,0,0-.564.564v6.309a1.082,1.082,0,0,1-1.133,1.02h-4.5a1.082,1.082,0,0,1-1.133-1.02V4.946a.564.564,0,0,0-1.127,0v6.309A2.209,2.209,0,0,0,5.824,13.4h4.5a2.209,2.209,0,0,0,2.26-2.147V4.946A.564.564,0,0,0,12.019,4.382Zm.564-1.691H10.328V1.564A.564.564,0,0,0,9.765,1H6.382a.564.564,0,0,0-.564.564V2.691H3.564a.564.564,0,0,0,0,1.127h9.019a.564.564,0,1,0,0-1.127Zm-5.637,0V2.127H9.2v.564Z" fill="#58151c"/>
    <path id="Path_41820" data-name="Path 41820" d="M10.127,13.51V9.564A.564.564,0,0,0,9,9.564V13.51a.564.564,0,0,0,1.127,0Zm2.255,0V9.564a.564.564,0,0,0-1.127,0V13.51a.564.564,0,0,0,1.127,0Z" transform="translate(-2.618 -3.49)" fill="#58151c"/>
  </g>
</svg>
